<svg xmlns="http://www.w3.org/2000/svg" xmlns:xlink="http://www.w3.org/1999/xlink" viewBox="0 0 1263.96 635.49"><defs><style>.cls-1,.cls-6{fill:none;}.cls-2{clip-path:url(#clip-path);}.cls-3{fill:#f7931e;}.cls-4{fill:#fbb03b;}.cls-5{fill:#999;}.cls-6{stroke:#000;stroke-miterlimit:10;stroke-width:1.13px;}.cls-7{fill:#ccc;}.cls-8{fill:#f2f2f2;}</style><clipPath id="clip-path" transform="translate(351 235.49)"><rect id="SVGID" class="cls-1" x="-351" y="-236" width="1264.71" height="583.18"/></clipPath></defs><g id="Layer_2" data-name="Layer 2"><g id="Layer_1-2" data-name="Layer 1"><rect class="cls-1" x="351" y="235.49" width="870" height="400"/><g id="rocket"><g class="cls-2"><g class="cls-2"><path class="cls-3" d="M77.91-11.26a659.59,659.59,0,0,0-134.44-14C-180.14-25.81-288.86,6-351,54.26c61.74,48.82,170.19,81.48,293.8,82A659.8,659.8,0,0,0,77.36,123.32Z" transform="translate(351 235.49)"/><path class="cls-4" d="M76.82,20.87A718.75,718.75,0,0,0-25.24,13.4C-119.06,13-201.55,29.5-248.67,54.68c46.91,25.58,129.26,42.74,223.09,43.13A718.45,718.45,0,0,0,76.53,91.18Z" transform="translate(351 235.49)"/><path class="cls-5" d="M262.83,185.59s-33.33,95-121.65,138.07C48.82,368.74-67.88,332-67.88,332S12,333.08,88.57,287.05s56.68-154.52,56.68-154.52Z" transform="translate(351 235.49)"/><path class="cls-6" d="M262.83,185.59s-33.33,95-121.65,138.07C48.82,368.74-67.88,332-67.88,332S12,333.08,88.57,287.05s56.68-154.52,56.68-154.52Z" transform="translate(351 235.49)"/><path class="cls-5" d="M263.89-72.5s-32.55-95.25-120.5-139.08c-92-45.83-209-10-209-10S14.24-222,90.48-175.4s55.4,155,55.4,155Z" transform="translate(351 235.49)"/><path class="cls-6" d="M263.89-72.5s-32.55-95.25-120.5-139.08c-92-45.83-209-10-209-10S14.24-222,90.48-175.4s55.4,155,55.4,155Z" transform="translate(351 235.49)"/><path class="cls-7" d="M126.85,175.13c88.76,36.9,189.61,58,296.65,58.44,194.72.8,369.61-66.79,488.62-174.35C794-49.33,619.67-118.35,425-119.16c-107-.44-208,19.82-297.12,56Z" transform="translate(351 235.49)"/><path class="cls-6" d="M126.85,175.13c88.76,36.9,189.61,58,296.65,58.44,194.72.8,369.61-66.79,488.62-174.35C794-49.33,619.67-118.35,425-119.16c-107-.44-208,19.82-297.12,56Z" transform="translate(351 235.49)"/><path class="cls-8" d="M561.11,107.48A49.71,49.71,0,1,1,611,58a49.71,49.71,0,0,1-49.91,49.51" transform="translate(351 235.49)"/><path class="cls-6" d="M561.11,107.48A49.71,49.71,0,1,1,611,58,49.71,49.71,0,0,1,561.11,107.48Z" transform="translate(351 235.49)"/><path class="cls-5" d="M69.66,136.73l.66-162A22.27,22.27,0,0,1,92.67-47.4l10.93,0A22.25,22.25,0,0,1,125.76-25l-.66,162a22.26,22.26,0,0,1-22.35,22.16l-10.93-.05a22.25,22.25,0,0,1-22.16-22.34" transform="translate(351 235.49)"/><path class="cls-6" d="M69.66,136.73l.66-162A22.27,22.27,0,0,1,92.67-47.4l10.93,0A22.25,22.25,0,0,1,125.76-25l-.66,162a22.26,22.26,0,0,1-22.35,22.16l-10.93-.05A22.25,22.25,0,0,1,69.66,136.73Z" transform="translate(351 235.49)"/></g></g></g></g></g></svg>